<svg xmlns="http://www.w3.org/2000/svg" xmlns:xlink="http://www.w3.org/1999/xlink" id="Layer_1" x="0px" y="0px" width="312.503px" height="63.714px" viewBox="0 0 312.503 63.714" xml:space="preserve"><g>	<path fill="#FFFFFF" d="M20.828,3.362c4.154,0,7.885,0.287,11.193,0.861c3.307,0.574,6.109,1.49,8.405,2.747  c2.296,1.258,4.059,2.87,5.289,4.838c1.23,1.968,1.845,4.346,1.845,7.134c0,4.319-1.476,7.667-4.428,10.045  c-2.952,2.378-7.107,3.977-12.464,4.797c2.678,0.492,4.769,1.408,6.273,2.747c1.503,1.34,2.637,2.87,3.403,4.592  c0.765,1.722,1.298,3.513,1.599,5.371c0.3,1.859,0.587,3.567,0.861,5.125c0.273,1.558,0.683,2.843,1.23,3.854  c0.546,1.012,1.448,1.517,2.706,1.517c1.968,0,2.952-1.148,2.952-3.444h0.902c0,3.227-0.957,5.728-2.87,7.503  c-1.914,1.777-4.292,2.665-7.134,2.665c-3.171,0-5.604-0.643-7.298-1.927c-1.695-1.284-2.966-2.924-3.813-4.92  c-0.848-1.995-1.449-4.182-1.804-6.56c-0.356-2.378-0.793-4.66-1.312-6.847c-0.52-2.186-1.299-4.1-2.337-5.74  c-1.039-1.64-2.652-2.733-4.838-3.28h-0.574v17.958c0,3.116,0.382,5.494,1.148,7.134c0.765,1.64,1.64,2.46,2.624,2.46v0.902H0  v-0.902c1.038,0,1.939-0.71,2.706-2.132c0.765-1.421,1.148-3.444,1.148-6.068V11.644c0-2.46-0.383-4.318-1.148-5.576  C1.939,4.811,1.038,4.182,0,4.182v-0.82H20.828z M18.614,5.822V31.98h0.82c4.154,0,7.393-1.134,9.717-3.403  c2.323-2.268,3.485-5.453,3.485-9.553c0-4.154-1.203-7.393-3.608-9.717c-2.406-2.323-5.74-3.485-10.004-3.485H18.614z"></path>	<path fill="#FFFFFF" d="M60.681,39.032c0.273,5.248,1.571,9.266,3.895,12.054c2.323,2.788,5.343,4.182,9.061,4.182  c0.765,0,1.775-0.068,3.034-0.205c1.257-0.136,2.542-0.505,3.854-1.107c1.312-0.601,2.542-1.489,3.69-2.665  c1.148-1.175,1.94-2.829,2.378-4.961h0.82c-0.219,2.788-0.861,5.262-1.927,7.421c-1.066,2.16-2.447,3.977-4.141,5.453  c-1.695,1.476-3.663,2.597-5.904,3.362c-2.242,0.765-4.674,1.148-7.298,1.148c-3.171,0-6.082-0.547-8.733-1.64  c-2.652-1.093-4.934-2.624-6.847-4.592c-1.914-1.968-3.403-4.318-4.469-7.052c-1.066-2.733-1.599-5.74-1.599-9.02  c0-3.28,0.505-6.259,1.517-8.938c1.011-2.678,2.432-4.974,4.264-6.888c1.831-1.913,4.018-3.403,6.56-4.469  c2.542-1.066,5.343-1.599,8.405-1.599c2.788,0,5.397,0.451,7.831,1.353c2.432,0.902,4.551,2.16,6.355,3.772  c1.804,1.613,3.225,3.499,4.264,5.658c1.038,2.161,1.558,4.498,1.558,7.011v1.722H60.681z M73.718,37.064  c-0.164-4.81-0.793-8.596-1.886-11.357c-1.094-2.76-2.515-4.141-4.264-4.141c-1.039,0-1.968,0.41-2.788,1.23  c-0.82,0.82-1.531,1.941-2.132,3.362c-0.602,1.422-1.066,3.075-1.394,4.961c-0.328,1.886-0.547,3.868-0.656,5.945H73.718z"></path>	<path fill="#FFFFFF" d="M104.14,21.566c-0.984,0-1.859,0.383-2.624,1.148c-0.766,0.767-1.148,1.859-1.148,3.28  c0,1.804,0.546,3.39,1.64,4.756c1.093,1.367,2.46,2.611,4.1,3.731c1.64,1.121,3.416,2.214,5.33,3.28  c1.913,1.066,3.69,2.214,5.33,3.444c1.64,1.23,3.005,2.624,4.1,4.182c1.093,1.558,1.64,3.376,1.64,5.453  c0,1.859-0.451,3.581-1.353,5.166c-0.902,1.586-2.173,2.952-3.813,4.1s-3.567,2.037-5.781,2.665  c-2.214,0.628-4.633,0.943-7.257,0.943s-5.057-0.205-7.298-0.615c-2.242-0.41-4.196-1.038-5.863-1.886  c-1.668-0.847-2.98-1.927-3.936-3.239c-0.958-1.312-1.435-2.842-1.435-4.592c0-1.857,0.615-3.471,1.845-4.838  c1.23-1.366,2.801-2.05,4.715-2.05c1.584,0,2.815,0.369,3.69,1.107c0.874,0.738,1.544,1.681,2.009,2.829  c0.464,1.148,0.82,2.365,1.066,3.649c0.246,1.285,0.546,2.501,0.902,3.649c0.354,1.148,0.847,2.091,1.476,2.829  c0.628,0.738,1.571,1.107,2.829,1.107c1.312,0,2.337-0.3,3.075-0.902c0.738-0.601,1.107-1.53,1.107-2.788  c0-1.749-0.547-3.293-1.64-4.633c-1.094-1.339-2.474-2.61-4.141-3.813c-1.668-1.202-3.458-2.378-5.371-3.526  c-1.915-1.148-3.704-2.405-5.371-3.772c-1.668-1.366-3.048-2.883-4.141-4.551c-1.094-1.667-1.64-3.594-1.64-5.781  c0-1.694,0.451-3.292,1.353-4.797c0.902-1.503,2.145-2.815,3.731-3.936c1.585-1.12,3.457-2.009,5.617-2.665  c2.159-0.656,4.496-0.984,7.011-0.984c5.793,0,10.263,0.998,13.407,2.993c3.143,1.996,4.715,4.579,4.715,7.749  c0,1.75-0.574,3.145-1.722,4.182c-1.148,1.039-2.679,1.558-4.592,1.558c-1.531,0-2.747-0.355-3.649-1.066  c-0.902-0.71-1.64-1.599-2.214-2.665c-0.574-1.066-1.012-2.227-1.312-3.485c-0.301-1.257-0.629-2.419-0.984-3.485  c-0.356-1.066-0.779-1.954-1.271-2.665C105.78,21.922,105.069,21.566,104.14,21.566z"></path>	<path fill="#FFFFFF" d="M119.639,20.336c1.913,0,3.758-0.3,5.535-0.902c1.776-0.601,3.403-1.448,4.879-2.542  c1.476-1.093,2.719-2.378,3.731-3.854c1.011-1.476,1.708-3.088,2.091-4.838h1.64v12.136h9.348v2.05h-9.348v28.126  c0,4.155,1.421,6.232,4.264,6.232c1.202,0,2.241-0.382,3.116-1.148c0.874-0.765,1.394-1.53,1.558-2.296h0.82  c0,1.476-0.301,2.857-0.902,4.141c-0.602,1.285-1.449,2.392-2.542,3.321c-1.094,0.93-2.392,1.654-3.895,2.173  c-1.504,0.519-3.13,0.779-4.879,0.779c-3.772,0-6.629-1.12-8.569-3.362c-1.941-2.241-2.911-5.521-2.911-9.84V22.386h-5.166v-2.05  H119.639z"></path>	<path fill="#FFFFFF" d="M143.174,41.656c0-3.17,0.587-6.109,1.763-8.815c1.175-2.706,2.788-5.043,4.838-7.011  c2.05-1.968,4.481-3.512,7.298-4.633c2.815-1.12,5.835-1.681,9.061-1.681c3.225,0,6.218,0.561,8.979,1.681  c2.76,1.121,5.151,2.665,7.175,4.633c2.021,1.968,3.621,4.305,4.797,7.011c1.176,2.706,1.764,5.646,1.764,8.815  c0,3.116-0.588,6.027-1.764,8.733s-2.775,5.043-4.797,7.011c-2.023,1.968-4.415,3.513-7.175,4.633  c-2.761,1.12-5.754,1.681-8.979,1.681c-3.226,0-6.246-0.561-9.061-1.681c-2.816-1.12-5.248-2.665-7.298-4.633  c-2.05-1.968-3.663-4.305-4.838-7.011C143.761,47.683,143.174,44.772,143.174,41.656z M158.098,41.574  c0,3.936,0.205,7.203,0.615,9.799c0.41,2.597,0.984,4.647,1.722,6.15c0.738,1.504,1.585,2.57,2.542,3.198  c0.956,0.629,1.981,0.943,3.075,0.943c1.093,0,2.118-0.314,3.075-0.943c0.956-0.628,1.79-1.694,2.501-3.198  c0.709-1.503,1.271-3.553,1.681-6.15c0.41-2.596,0.615-5.863,0.615-9.799s-0.205-7.188-0.615-9.758  c-0.41-2.569-0.971-4.604-1.681-6.109c-0.711-1.503-1.545-2.569-2.501-3.198c-0.957-0.628-1.982-0.943-3.075-0.943  c-1.094,0-2.119,0.315-3.075,0.943c-0.957,0.629-1.804,1.695-2.542,3.198c-0.738,1.504-1.312,3.54-1.722,6.109  C158.303,34.386,158.098,37.638,158.098,41.574z"></path>	<path fill="#FFFFFF" d="M188.602,12.71c0-1.093-0.111-2.159-0.328-3.198c-0.22-1.038-0.507-1.954-0.861-2.747  c-0.356-0.792-0.767-1.421-1.23-1.886c-0.465-0.464-0.943-0.697-1.435-0.697v-0.82c1.421-0.109,2.897-0.259,4.428-0.451  c1.53-0.191,3.047-0.423,4.552-0.697c1.502-0.273,2.924-0.586,4.264-0.943c1.338-0.355,2.5-0.779,3.484-1.271h0.984v27.388  c1.749-2.514,3.785-4.455,6.109-5.822c2.322-1.366,4.987-2.05,7.994-2.05c2.461,0,4.756,0.479,6.889,1.435  c2.132,0.957,3.99,2.351,5.576,4.182c1.584,1.833,2.828,4.073,3.73,6.724c0.902,2.652,1.354,5.646,1.354,8.979  c0,3.335-0.465,6.41-1.395,9.225c-0.93,2.816-2.255,5.235-3.977,7.257c-1.723,2.023-3.772,3.595-6.15,4.715  c-2.378,1.12-5.016,1.681-7.913,1.681c-5.467,0-9.594-1.749-12.382-5.248l-12.874,4.428h-0.819V12.71z M202.459,51.988  c0.438,2.734,1.529,4.784,3.279,6.15c1.75,1.367,3.58,2.05,5.494,2.05c2.461,0,4.429-1.626,5.904-4.879  c1.477-3.252,2.215-7.612,2.215-13.079c0-5.466-0.738-9.744-2.215-12.833c-1.476-3.088-3.391-4.633-5.74-4.633  c-1.695,0-3.402,0.684-5.125,2.05c-1.722,1.367-2.992,3.226-3.813,5.576V51.988z"></path>	<path fill="#FFFFFF" d="M270.274,56.088c0,0.93,0.149,1.654,0.451,2.173c0.3,0.52,0.778,0.779,1.435,0.779  c0.438,0,0.833-0.109,1.189-0.328c0.354-0.218,0.696-0.683,1.024-1.394h0.82c0,1.859-0.834,3.39-2.501,4.592  c-1.668,1.202-3.759,1.804-6.273,1.804c-5.193,0-8.392-1.558-9.594-4.674c-1.258,1.64-2.829,2.829-4.715,3.567  c-1.886,0.738-3.978,1.107-6.272,1.107c-1.859,0-3.623-0.301-5.289-0.902c-1.668-0.601-3.131-1.489-4.387-2.665  c-1.259-1.175-2.256-2.596-2.994-4.264c-0.738-1.667-1.106-3.567-1.106-5.699c0-3.061,0.601-5.63,1.804-7.708  c1.202-2.077,2.706-3.744,4.51-5.002c1.805-1.257,3.758-2.159,5.863-2.706c2.104-0.546,4.059-0.82,5.863-0.82  c1.148,0,2.117,0.069,2.91,0.205c0.793,0.137,1.436,0.287,1.928,0.451c0.546,0.219,1.011,0.438,1.395,0.656v-5.904  c0-2.35-0.398-4.236-1.189-5.658c-0.793-1.421-1.818-2.132-3.075-2.132c-2.132,0-3.198,2.16-3.198,6.478  c0,1.804-0.711,3.308-2.132,4.51c-1.422,1.203-3.362,1.804-5.821,1.804c-1.914,0-3.391-0.492-4.429-1.476  c-1.039-0.984-1.558-2.296-1.558-3.936c0-1.476,0.422-2.801,1.271-3.977c0.847-1.175,2.009-2.173,3.485-2.993  s3.211-1.435,5.207-1.845c1.994-0.41,4.141-0.615,6.438-0.615c3.115,0,5.848,0.465,8.199,1.394c2.35,0.93,4.332,2.255,5.945,3.977  c1.611,1.722,2.814,3.8,3.607,6.232c0.792,2.433,1.189,5.153,1.189,8.159V56.088z M256.334,40.59c0-0.929-0.261-1.804-0.779-2.624  c-0.521-0.82-1.381-1.23-2.584-1.23c-1.914,0-3.472,1.189-4.674,3.567c-1.203,2.378-1.804,5.781-1.804,10.209  c0,2.734,0.492,4.838,1.476,6.314c0.984,1.476,2.16,2.214,3.527,2.214c1.912,0,3.525-0.847,4.838-2.542V40.59z"></path>	<path fill="#FFFFFF" d="M271.503,62.074c0.492,0,0.971-0.232,1.436-0.697c0.464-0.464,0.874-1.066,1.229-1.804  c0.355-0.738,0.643-1.585,0.861-2.542c0.218-0.956,0.328-1.899,0.328-2.829V32.554c0-1.038-0.11-2.036-0.328-2.993  c-0.219-0.956-0.506-1.804-0.861-2.542s-0.766-1.339-1.229-1.804c-0.465-0.463-0.943-0.697-1.436-0.697v-0.82  c1.53-0.109,3.062-0.259,4.593-0.451c1.529-0.191,3.033-0.423,4.51-0.697c1.476-0.272,2.87-0.586,4.182-0.943  c1.313-0.355,2.487-0.779,3.526-1.271h0.983v6.314c1.641-2.296,3.703-4.059,6.191-5.289c2.487-1.23,5.179-1.845,8.077-1.845  c2.021,0,3.689,0.383,5.002,1.148c1.312,0.766,2.296,1.722,2.952,2.87c0.655,1.148,0.983,2.406,0.983,3.772  c0,1.367-0.273,2.624-0.819,3.772c-0.548,1.148-1.354,2.105-2.419,2.87c-1.066,0.766-2.365,1.148-3.896,1.148  c-1.804,0-3.145-0.492-4.018-1.476c-0.875-0.984-1.587-2.063-2.132-3.239c-0.548-1.175-1.095-2.255-1.641-3.239  c-0.547-0.984-1.449-1.476-2.706-1.476c-0.656,0-1.271,0.192-1.845,0.574c-0.574,0.383-1.107,0.861-1.599,1.435  c-0.492,0.574-0.916,1.148-1.271,1.722c-0.356,0.574-0.644,1.08-0.861,1.517v22.96c0,0.984,0.109,1.968,0.328,2.952  c0.218,0.984,0.505,1.873,0.861,2.665c0.354,0.793,0.765,1.422,1.229,1.886c0.464,0.465,0.943,0.697,1.436,0.697v0.82h-21.648  V62.074z"></path></g></svg>